<svg xmlns="http://www.w3.org/2000/svg" viewBox="0 0 1360 1020" role="img" aria-label="Architectural impression">
  <defs><linearGradient id="bg" x1="0" y1="0" x2="0.4" y2="1">
    <stop offset="0" stop-color="#211F1B"/><stop offset="1" stop-color="#17161380"/></linearGradient></defs>
  <rect width="1360" height="1020" fill="#1B1A17"/>
  <rect width="1360" height="1020" fill="url(#bg)"/>
  <g fill="none" stroke="#CFC8B8" stroke-opacity="0.30" stroke-width="1.4"><rect x="500" y="240" width="360" height="560"/><line x1="500" y1="290" x2="860" y2="290"/>" <line x1="500" y1="340" x2="860" y2="340"/>" <line x1="500" y1="390" x2="860" y2="390"/>" <line x1="500" y1="440" x2="860" y2="440"/>" <line x1="500" y1="490" x2="860" y2="490"/>" <line x1="500" y1="540" x2="860" y2="540"/>" <line x1="500" y1="590" x2="860" y2="590"/>" <line x1="500" y1="640" x2="860" y2="640"/>" <line x1="500" y1="690" x2="860" y2="690"/>" <line x1="500" y1="740" x2="860" y2="740"/>" <line x1="500" y1="790" x2="860" y2="790"/>" <line x1="560" y1="240" x2="560" y2="800"/>" <line x1="620" y1="240" x2="620" y2="800"/>" <line x1="680" y1="240" x2="680" y2="800"/>" <line x1="740" y1="240" x2="740" y2="800"/>" <line x1="800" y1="240" x2="800" y2="800"/>" <rect x="420" y="380" width="80" height="420"/><rect x="860" y="470" width="70" height="330"/></g><line x1="330" y1="800" x2="1030" y2="800" stroke="#B08A4A" stroke-opacity="0.5" stroke-width="1.4"/>
</svg>