<svg xmlns="http://www.w3.org/2000/svg" viewBox="0 0 1360 1020" role="img" aria-label="Architectural impression">
  <defs><linearGradient id="bg" x1="0" y1="0" x2="0.4" y2="1">
    <stop offset="0" stop-color="#211F1B"/><stop offset="1" stop-color="#17161380"/></linearGradient></defs>
  <rect width="1360" height="1020" fill="#1B1A17"/>
  <rect width="1360" height="1020" fill="url(#bg)"/>
  <g fill="none" stroke="#CFC8B8" stroke-opacity="0.30" stroke-width="1.4"><rect x="470" y="230" width="420" height="560"/><line x1="470" y1="285" x2="890" y2="285"/>" <line x1="470" y1="333" x2="890" y2="333"/>" <line x1="470" y1="381" x2="890" y2="381"/>" <line x1="470" y1="429" x2="890" y2="429"/>" <line x1="470" y1="477" x2="890" y2="477"/>" <line x1="470" y1="525" x2="890" y2="525"/>" <line x1="470" y1="573" x2="890" y2="573"/>" <line x1="470" y1="621" x2="890" y2="621"/>" <line x1="470" y1="669" x2="890" y2="669"/>" <line x1="470" y1="717" x2="890" y2="717"/>" <line x1="470" y1="765" x2="890" y2="765"/>" <line x1="530" y1="230" x2="530" y2="790"/>" <line x1="590" y1="230" x2="590" y2="790"/>" <line x1="650" y1="230" x2="650" y2="790"/>" <line x1="710" y1="230" x2="710" y2="790"/>" <line x1="770" y1="230" x2="770" y2="790"/>" <line x1="830" y1="230" x2="830" y2="790"/>" </g><line x1="330" y1="790" x2="1030" y2="790" stroke="#B08A4A" stroke-opacity="0.5" stroke-width="1.4"/>
</svg>